<svg id="SvgjsSvg1006" width="277" height="416" xmlns="http://www.w3.org/2000/svg" version="1.1" xmlns:xlink="http://www.w3.org/1999/xlink" xmlns:svgjs="http://svgjs.com/svgjs"><defs id="SvgjsDefs1007"><pattern patternUnits="userSpaceOnUse" id="pattern_mark_0" width="300" height="300"><text x="150" y="100" fill="rgba(229,229,229,0.8)" font-size="18" transform="rotate(-45, 150, 150)" style="dominant-baseline: middle; text-anchor: middle;"></text></pattern><pattern patternUnits="userSpaceOnUse" id="pattern_mark_1" width="300" height="300"><text x="150" y="200" fill="rgba(229,229,229,0.8)" font-size="18" transform="rotate(-45, 150, 150)" style="dominant-baseline: middle; text-anchor: middle;"></text></pattern><marker id="SvgjsMarker1031" markerWidth="13" markerHeight="9" refX="9.5" refY="4.5" viewBox="0 0 13 9" orient="auto" markerUnits="userSpaceOnUse" stroke-dasharray="0,0"><path id="SvgjsPath1032" d="M0,0 L13,4.5 L0,9 L0,0" fill="#323232" stroke="#323232" stroke-width="1"></path></marker><marker id="SvgjsMarker1035" markerWidth="13" markerHeight="9" refX="9.5" refY="4.5" viewBox="0 0 13 9" orient="auto" markerUnits="userSpaceOnUse" stroke-dasharray="0,0"><path id="SvgjsPath1036" d="M0,0 L13,4.5 L0,9 L0,0" fill="#323232" stroke="#323232" stroke-width="1"></path></marker><marker id="SvgjsMarker1039" markerWidth="13" markerHeight="9" refX="9.5" refY="4.5" viewBox="0 0 13 9" orient="auto" markerUnits="userSpaceOnUse" stroke-dasharray="0,0"><path id="SvgjsPath1040" d="M0,0 L13,4.5 L0,9 L0,0" fill="#323232" stroke="#323232" stroke-width="1"></path></marker><marker id="SvgjsMarker1049" markerWidth="13" markerHeight="9" refX="9.5" refY="4.5" viewBox="0 0 13 9" orient="auto" markerUnits="userSpaceOnUse" stroke-dasharray="0,0"><path id="SvgjsPath1050" d="M0,0 L13,4.5 L0,9 L0,0" fill="#323232" stroke="#323232" stroke-width="1"></path></marker><marker id="SvgjsMarker1065" markerWidth="13" markerHeight="9" refX="9.5" refY="4.5" viewBox="0 0 13 9" orient="auto" markerUnits="userSpaceOnUse" stroke-dasharray="0,0"><path id="SvgjsPath1066" d="M0,0 L13,4.5 L0,9 L0,0" fill="#323232" stroke="#323232" stroke-width="1"></path></marker><marker id="SvgjsMarker1075" markerWidth="13" markerHeight="9" refX="9.5" refY="4.5" viewBox="0 0 13 9" orient="auto" markerUnits="userSpaceOnUse" stroke-dasharray="0,0"><path id="SvgjsPath1076" d="M0,0 L13,4.5 L0,9 L0,0" fill="#323232" stroke="#323232" stroke-width="1"></path></marker></defs><rect id="svgbackgroundid" width="277" height="416" fill="transparent"></rect><rect id="SvgjsRect1009" width="277" height="416" fill="url(#pattern_mark_0)"></rect><rect id="SvgjsRect1010" width="277" height="416" fill="url(#pattern_mark_1)"></rect><g id="SvgjsG1011" transform="translate(93,337)"><path id="SvgjsPath1012" d="M 0 0L 96 0L 96 54L 0 54Z" stroke="rgba(33,41,48,1)" stroke-width="1.5" fill-opacity="1" fill="#ffffff"></path><g id="SvgjsG1013"><text id="SvgjsText1014" font-family="&quot;Microsoft YaHei&quot;, 微软雅黑, Arial" text-anchor="middle" font-size="13px" width="76px" fill="#323232" font-weight="400" align="middle" lineHeight="125%" anchor="middle" family="&quot;Microsoft YaHei&quot;, 微软雅黑, Arial" size="13px" weight="400" font-style="" opacity="1" y="16.375" transform="rotate(0)"><tspan id="SvgjsTspan1015" dy="16.25" x="48"><tspan id="SvgjsTspan1016" style="">disk</tspan></tspan></text></g></g><g id="SvgjsG1017" transform="translate(25,223)"><path id="SvgjsPath1018" d="M 0 0L 96 0L 96 54L 0 54Z" stroke="rgba(33,41,48,1)" stroke-width="1.5" fill-opacity="1" fill="#ffffff"></path><g id="SvgjsG1019"><text id="SvgjsText1020" font-family="&quot;Microsoft YaHei&quot;, 微软雅黑, Arial" text-anchor="middle" font-size="13px" width="76px" fill="#323232" font-weight="400" align="middle" lineHeight="125%" anchor="middle" family="&quot;Microsoft YaHei&quot;, 微软雅黑, Arial" size="13px" weight="400" font-style="" opacity="1" y="16.375" transform="rotate(0)"><tspan id="SvgjsTspan1021" dy="16.25" x="48"><tspan id="SvgjsTspan1022" style="">partition1</tspan></tspan></text></g></g><g id="SvgjsG1023" transform="translate(156,223)"><path id="SvgjsPath1024" d="M 0 0L 96 0L 96 54L 0 54Z" stroke="rgba(33,41,48,1)" stroke-width="1.5" fill-opacity="1" fill="#ffffff"></path><g id="SvgjsG1025"><text id="SvgjsText1026" font-family="&quot;Microsoft YaHei&quot;, 微软雅黑, Arial" text-anchor="middle" font-size="13px" width="76px" fill="#323232" font-weight="400" align="middle" lineHeight="125%" anchor="middle" family="&quot;Microsoft YaHei&quot;, 微软雅黑, Arial" size="13px" weight="400" font-style="" opacity="1" y="16.375" transform="rotate(0)"><tspan id="SvgjsTspan1027" dy="16.25" x="48"><tspan id="SvgjsTspan1028" style="">partition2</tspan></tspan></text></g></g><g id="SvgjsG1029"><path id="SvgjsPath1030" d="M141 336.25L141 307L73 307L73 279.7" stroke="#323232" stroke-width="1.5" fill="none" marker-end="url(#SvgjsMarker1031)"></path></g><g id="SvgjsG1033"><path id="SvgjsPath1034" d="M141 336.25L141 307L204 307L204 279.7" stroke="#323232" stroke-width="1.5" fill="none" marker-end="url(#SvgjsMarker1035)"></path></g><g id="SvgjsG1037"><path id="SvgjsPath1038" d="M73 222.25L73 198.5L73 198.5L73 176.7" stroke="#323232" stroke-width="1.5" fill="none" marker-end="url(#SvgjsMarker1039)"></path></g><g id="SvgjsG1041" transform="translate(25,120)"><path id="SvgjsPath1042" d="M 0 0L 96 0L 96 54L 0 54Z" stroke="rgba(33,41,48,1)" stroke-width="1.5" fill-opacity="1" fill="#ffffff"></path><g id="SvgjsG1043"><text id="SvgjsText1044" font-family="&quot;Microsoft YaHei&quot;, 微软雅黑, Arial" text-anchor="middle" font-size="13px" width="76px" fill="#323232" font-weight="400" align="middle" lineHeight="125%" anchor="middle" family="&quot;Microsoft YaHei&quot;, 微软雅黑, Arial" size="13px" weight="400" font-style="" opacity="1" y="16.375" transform="rotate(0)"><tspan id="SvgjsTspan1045" dy="16.25" x="48"><tspan id="SvgjsTspan1046" style="">NTFS</tspan></tspan></text></g></g><g id="SvgjsG1047"><path id="SvgjsPath1048" d="M204 222.25L204 198.5L204 198.5L204 176.7" stroke="#323232" stroke-width="1.5" fill="none" marker-end="url(#SvgjsMarker1049)"></path></g><g id="SvgjsG1051" transform="translate(156,120)"><path id="SvgjsPath1052" d="M 0 0L 96 0L 96 54L 0 54Z" stroke="rgba(33,41,48,1)" stroke-width="1.5" fill-opacity="1" fill="#ffffff"></path><g id="SvgjsG1053"><text id="SvgjsText1054" font-family="&quot;Microsoft YaHei&quot;, 微软雅黑, Arial" text-anchor="middle" font-size="13px" width="76px" fill="#323232" font-weight="400" align="middle" lineHeight="125%" anchor="middle" family="&quot;Microsoft YaHei&quot;, 微软雅黑, Arial" size="13px" weight="400" font-style="" opacity="1" y="16.375" transform="rotate(0)"><tspan id="SvgjsTspan1055" dy="16.25" x="48"><tspan id="SvgjsTspan1056" style="">EXT4</tspan></tspan></text></g></g><g id="SvgjsG1057" transform="translate(25,25)"><path id="SvgjsPath1058" d="M 0 0L 96 0L 96 54L 0 54Z" stroke="rgba(33,41,48,1)" stroke-width="1.5" fill-opacity="1" fill="#ffffff"></path><g id="SvgjsG1059"><text id="SvgjsText1060" font-family="&quot;Microsoft YaHei&quot;, 微软雅黑, Arial" text-anchor="middle" font-size="13px" width="76px" fill="#323232" font-weight="400" align="middle" lineHeight="125%" anchor="middle" family="&quot;Microsoft YaHei&quot;, 微软雅黑, Arial" size="13px" weight="400" font-style="" opacity="1" y="16.375" transform="rotate(0)"><tspan id="SvgjsTspan1061" dy="16.25" x="48"><tspan id="SvgjsTspan1062" style="">Windows</tspan></tspan></text></g></g><g id="SvgjsG1063"><path id="SvgjsPath1064" d="M73 119.25L73 99.5L73 99.5L73 81.7" stroke="#323232" stroke-width="1.5" fill="none" marker-end="url(#SvgjsMarker1065)"></path></g><g id="SvgjsG1067" transform="translate(156,25)"><path id="SvgjsPath1068" d="M 0 0L 96 0L 96 54L 0 54Z" stroke="rgba(33,41,48,1)" stroke-width="1.5" fill-opacity="1" fill="#ffffff"></path><g id="SvgjsG1069"><text id="SvgjsText1070" font-family="&quot;Microsoft YaHei&quot;, 微软雅黑, Arial" text-anchor="middle" font-size="13px" width="76px" fill="#323232" font-weight="400" align="middle" lineHeight="125%" anchor="middle" family="&quot;Microsoft YaHei&quot;, 微软雅黑, Arial" size="13px" weight="400" font-style="" opacity="1" y="16.375" transform="rotate(0)"><tspan id="SvgjsTspan1071" dy="16.25" x="48"><tspan id="SvgjsTspan1072" style="">Linux</tspan></tspan></text></g></g><g id="SvgjsG1073"><path id="SvgjsPath1074" d="M204 119.25L204 99.5L204 99.5L204 81.7" stroke="#323232" stroke-width="1.5" fill="none" marker-end="url(#SvgjsMarker1075)"></path></g><g id="SvgjsG1077"></g></svg>