<svg id="SvgjsSvg1006" width="681" height="445" xmlns="http://www.w3.org/2000/svg" version="1.1" xmlns:xlink="http://www.w3.org/1999/xlink" xmlns:svgjs="http://svgjs.com/svgjs"><defs id="SvgjsDefs1007"><pattern patternUnits="userSpaceOnUse" id="pattern_mark_0" width="300" height="300"><text x="150" y="100" fill="rgba(229,229,229,0.8)" font-size="18" transform="rotate(-45, 150, 150)" style="dominant-baseline: middle; text-anchor: middle;"></text></pattern><pattern patternUnits="userSpaceOnUse" id="pattern_mark_1" width="300" height="300"><text x="150" y="200" fill="rgba(229,229,229,0.8)" font-size="18" transform="rotate(-45, 150, 150)" style="dominant-baseline: middle; text-anchor: middle;"></text></pattern><marker id="SvgjsMarker1054" markerWidth="13" markerHeight="9" refX="9.5" refY="4.5" viewBox="0 0 13 9" orient="auto" markerUnits="userSpaceOnUse" stroke-dasharray="0,0"><path id="SvgjsPath1055" d="M0,0 L13,4.5 L0,9 L0,0" fill="#323232" stroke="#323232" stroke-width="1"></path></marker><marker id="SvgjsMarker1058" markerWidth="13" markerHeight="9" refX="9.5" refY="4.5" viewBox="0 0 13 9" orient="auto" markerUnits="userSpaceOnUse" stroke-dasharray="0,0"><path id="SvgjsPath1059" d="M0,0 L13,4.5 L0,9 L0,0" fill="#323232" stroke="#323232" stroke-width="1"></path></marker><marker id="SvgjsMarker1086" markerWidth="13" markerHeight="9" refX="9.5" refY="4.5" viewBox="0 0 13 9" orient="auto" markerUnits="userSpaceOnUse" stroke-dasharray="0,0"><path id="SvgjsPath1087" d="M0,0 L13,4.5 L0,9 L0,0" fill="#323232" stroke="#323232" stroke-width="1"></path></marker><marker id="SvgjsMarker1090" markerWidth="13" markerHeight="9" refX="9.5" refY="4.5" viewBox="0 0 13 9" orient="auto" markerUnits="userSpaceOnUse" stroke-dasharray="0,0"><path id="SvgjsPath1091" d="M0,0 L13,4.5 L0,9 L0,0" fill="#323232" stroke="#323232" stroke-width="1"></path></marker><marker id="SvgjsMarker1094" markerWidth="13" markerHeight="9" refX="9.5" refY="4.5" viewBox="0 0 13 9" orient="auto" markerUnits="userSpaceOnUse" stroke-dasharray="0,0"><path id="SvgjsPath1095" d="M0,0 L13,4.5 L0,9 L0,0" fill="#323232" stroke="#323232" stroke-width="1"></path></marker><marker id="SvgjsMarker1098" markerWidth="13" markerHeight="9" refX="9.5" refY="4.5" viewBox="0 0 13 9" orient="auto" markerUnits="userSpaceOnUse" stroke-dasharray="0,0"><path id="SvgjsPath1099" d="M0,0 L13,4.5 L0,9 L0,0" fill="#323232" stroke="#323232" stroke-width="1"></path></marker><marker id="SvgjsMarker1102" markerWidth="13" markerHeight="9" refX="9.5" refY="4.5" viewBox="0 0 13 9" orient="auto" markerUnits="userSpaceOnUse" stroke-dasharray="0,0"><path id="SvgjsPath1103" d="M0,0 L13,4.5 L0,9 L0,0" fill="#323232" stroke="#323232" stroke-width="1"></path></marker><marker id="SvgjsMarker1112" markerWidth="13" markerHeight="9" refX="9.5" refY="4.5" viewBox="0 0 13 9" orient="auto" markerUnits="userSpaceOnUse" stroke-dasharray="0,0"><path id="SvgjsPath1113" d="M0,0 L13,4.5 L0,9 L0,0" fill="#323232" stroke="#323232" stroke-width="1"></path></marker></defs><rect id="svgbackgroundid" width="681" height="445" fill="transparent"></rect><rect id="SvgjsRect1009" width="681" height="445" fill="url(#pattern_mark_0)"></rect><rect id="SvgjsRect1010" width="681" height="445" fill="url(#pattern_mark_1)"></rect><g id="SvgjsG1011" transform="translate(135,162.5)"><path id="SvgjsPath1012" d="M 0 0L 152 0L 152 50L 0 50Z" stroke="rgba(33,41,48,1)" stroke-width="1.5" fill-opacity="1" fill="#ffffff"></path><g id="SvgjsG1013"><text id="SvgjsText1014" font-family="&quot;Microsoft YaHei&quot;, 微软雅黑, Arial" text-anchor="middle" font-size="13px" width="132px" fill="#323232" font-weight="400" align="middle" lineHeight="125%" anchor="middle" family="&quot;Microsoft YaHei&quot;, 微软雅黑, Arial" size="13px" weight="400" font-style="" opacity="1" y="14.375" transform="rotate(0)"><tspan id="SvgjsTspan1015" dy="16.25" x="76"><tspan id="SvgjsTspan1016" style="">Network Manager</tspan></tspan></text></g></g><g id="SvgjsG1017" transform="translate(384,162.5)"><path id="SvgjsPath1018" d="M 0 0L 152 0L 152 50L 0 50Z" stroke="rgba(33,41,48,1)" stroke-width="1.5" fill-opacity="1" fill="#ffffff"></path><g id="SvgjsG1019"><text id="SvgjsText1020" font-family="&quot;Microsoft YaHei&quot;, 微软雅黑, Arial" text-anchor="middle" font-size="13px" width="132px" fill="#323232" font-weight="400" align="middle" lineHeight="125%" anchor="middle" family="&quot;Microsoft YaHei&quot;, 微软雅黑, Arial" size="13px" weight="400" font-style="" opacity="1" y="14.375" transform="rotate(0)"><tspan id="SvgjsTspan1021" dy="16.25" x="76"><tspan id="SvgjsTspan1022" style="">systemd-networkd</tspan></tspan></text></g></g><g id="SvgjsG1023" transform="translate(254,36.5)"><path id="SvgjsPath1024" d="M 0 0L 152 0L 152 50L 0 50Z" stroke="rgba(33,41,48,1)" stroke-width="1.5" fill-opacity="1" fill="#ffffff"></path><g id="SvgjsG1025"><text id="SvgjsText1026" font-family="&quot;Microsoft YaHei&quot;, 微软雅黑, Arial" text-anchor="middle" font-size="13px" width="132px" fill="#323232" font-weight="400" align="middle" lineHeight="125%" anchor="middle" family="&quot;Microsoft YaHei&quot;, 微软雅黑, Arial" size="13px" weight="400" font-style="" opacity="1" y="14.375" transform="rotate(0)"><tspan id="SvgjsTspan1027" dy="16.25" x="76"><tspan id="SvgjsTspan1028" style="">netplan</tspan></tspan></text></g></g><g id="SvgjsG1029" transform="translate(142,25)"><path id="SvgjsPath1030" d="M 84 0Q 75.6 0 75.6 7.300000000000001L 75.6 29.2Q 75.6 36.5 62 36.5Q 75.6 36.5 75.6 43.8L 75.6 65.7Q 75.6 73 84 73" stroke="rgba(33,41,48,1)" stroke-width="1.5" fill="none"></path><path id="SvgjsPath1031" d="M 0 0L 84 0L 84 73L 0 73Z" stroke="none" fill="none"></path><g id="SvgjsG1032"><text id="SvgjsText1033" font-family="&quot;Microsoft YaHei&quot;, 微软雅黑, Arial" text-anchor="end" font-size="13px" width="57px" fill="#323232" font-weight="400" align="middle" lineHeight="125%" anchor="end" family="&quot;Microsoft YaHei&quot;, 微软雅黑, Arial" size="13px" weight="400" font-style="" opacity="1" y="25.875" transform="rotate(0)"><tspan id="SvgjsTspan1034" dy="16.25" x="57"><tspan id="SvgjsTspan1035" style="">ubuntu</tspan></tspan></text></g></g><g id="SvgjsG1036" transform="translate(25,151)"><path id="SvgjsPath1037" d="M 84 0Q 75.6 0 75.6 7.300000000000001L 75.6 29.2Q 75.6 36.5 62 36.5Q 75.6 36.5 75.6 43.8L 75.6 65.7Q 75.6 73 84 73" stroke="rgba(33,41,48,1)" stroke-width="1.5" fill="none"></path><path id="SvgjsPath1038" d="M 0 0L 84 0L 84 73L 0 73Z" stroke="none" fill="none"></path><g id="SvgjsG1039"><text id="SvgjsText1040" font-family="&quot;Microsoft YaHei&quot;, 微软雅黑, Arial" text-anchor="end" font-size="13px" width="57px" fill="#323232" font-weight="400" align="middle" lineHeight="125%" anchor="end" family="&quot;Microsoft YaHei&quot;, 微软雅黑, Arial" size="13px" weight="400" font-style="" opacity="1" y="17.375" transform="rotate(0)"><tspan id="SvgjsTspan1041" dy="16.25" x="57"><tspan id="SvgjsTspan1042" style="">CentOS</tspan></tspan><tspan id="SvgjsTspan1043" dy="16.25" x="57"><tspan id="SvgjsTspan1044" style="">Desktop</tspan></tspan></text></g></g><g id="SvgjsG1045" transform="translate(572,151)"><path id="SvgjsPath1046" d="M 0 73Q 8.4 73 8.4 65.7L 8.4 43.8Q 8.4 36.5 22 36.5Q 8.4 36.5 8.4 29.2L 8.4 7.300000000000001Q 8.4 0 0 0" stroke="rgba(33,41,48,1)" stroke-width="1.5" fill="none"></path><path id="SvgjsPath1047" d="M 0 0L 84 0L 84 73L 0 73Z" stroke="none" fill="none"></path><g id="SvgjsG1048"><text id="SvgjsText1049" font-family="&quot;Microsoft YaHei&quot;, 微软雅黑, Arial" text-anchor="start" font-size="13px" width="57px" fill="#323232" font-weight="400" align="middle" lineHeight="125%" anchor="start" family="&quot;Microsoft YaHei&quot;, 微软雅黑, Arial" size="13px" weight="400" font-style="" opacity="1" y="25.875" transform="rotate(0)"><tspan id="SvgjsTspan1050" dy="16.25" x="27"><tspan id="SvgjsTspan1051" style="">Debian</tspan></tspan></text></g></g><g id="SvgjsG1052"><path id="SvgjsPath1053" d="M330 87.25L330 124.5L211 124.5L211 159.8" stroke="#323232" stroke-width="1.5" fill="none" marker-end="url(#SvgjsMarker1054)"></path></g><g id="SvgjsG1056"><path id="SvgjsPath1057" d="M330 87.25L330 124.5L460 124.5L460 159.8" stroke="#323232" stroke-width="1.5" fill="none" marker-end="url(#SvgjsMarker1058)"></path></g><g id="SvgjsG1060" transform="translate(113,319.5)"><path id="SvgjsPath1061" d="M 0 0L 113 0L 113 33.5L 0 33.5Z" stroke="rgba(33,41,48,1)" stroke-width="1.5" fill-opacity="1" fill="#ffffff"></path><g id="SvgjsG1062"><text id="SvgjsText1063" font-family="&quot;Microsoft YaHei&quot;, 微软雅黑, Arial" text-anchor="middle" font-size="13px" width="93px" fill="#323232" font-weight="400" align="middle" lineHeight="125%" anchor="middle" family="&quot;Microsoft YaHei&quot;, 微软雅黑, Arial" size="13px" weight="400" font-style="" opacity="1" y="6.125" transform="rotate(0)"><tspan id="SvgjsTspan1064" dy="16.25" x="56.5"><tspan id="SvgjsTspan1065" style="">iproute</tspan></tspan></text></g></g><g id="SvgjsG1066" transform="translate(273.5,319.5)"><path id="SvgjsPath1067" d="M 0 0L 113 0L 113 33.5L 0 33.5Z" stroke="rgba(33,41,48,1)" stroke-width="1.5" fill-opacity="1" fill="#ffffff"></path><g id="SvgjsG1068"><text id="SvgjsText1069" font-family="&quot;Microsoft YaHei&quot;, 微软雅黑, Arial" text-anchor="middle" font-size="13px" width="93px" fill="#323232" font-weight="400" align="middle" lineHeight="125%" anchor="middle" family="&quot;Microsoft YaHei&quot;, 微软雅黑, Arial" size="13px" weight="400" font-style="" opacity="1" y="6.125" transform="rotate(0)"><tspan id="SvgjsTspan1070" dy="16.25" x="56.5"><tspan id="SvgjsTspan1071" style="">dhcpd</tspan></tspan></text></g></g><g id="SvgjsG1072" transform="translate(273.5,244.75)"><path id="SvgjsPath1073" d="M 0 0L 113 0L 113 33.5L 0 33.5Z" stroke="rgba(33,41,48,1)" stroke-width="1.5" fill-opacity="1" fill="#ffffff"></path><g id="SvgjsG1074"><text id="SvgjsText1075" font-family="&quot;Microsoft YaHei&quot;, 微软雅黑, Arial" text-anchor="middle" font-size="13px" width="93px" fill="#323232" font-weight="400" align="middle" lineHeight="125%" anchor="middle" family="&quot;Microsoft YaHei&quot;, 微软雅黑, Arial" size="13px" weight="400" font-style="" opacity="1" y="6.125" transform="rotate(0)"><tspan id="SvgjsTspan1076" dy="16.25" x="56.5"><tspan id="SvgjsTspan1077" style="">low level tools</tspan></tspan></text></g></g><g id="SvgjsG1078" transform="translate(415,319.5)"><path id="SvgjsPath1079" d="M 0 0L 144 0L 144 33.5L 0 33.5Z" stroke="rgba(33,41,48,1)" stroke-width="1.5" fill-opacity="1" fill="#ffffff"></path><g id="SvgjsG1080"><text id="SvgjsText1081" font-family="&quot;Microsoft YaHei&quot;, 微软雅黑, Arial" text-anchor="middle" font-size="13px" width="124px" fill="#323232" font-weight="400" align="middle" lineHeight="125%" anchor="middle" family="&quot;Microsoft YaHei&quot;, 微软雅黑, Arial" size="13px" weight="400" font-style="" opacity="1" y="6.125" transform="rotate(0)"><tspan id="SvgjsTspan1082" dy="16.25" x="72"><tspan id="SvgjsTspan1083" style="">systemd-resolved</tspan></tspan></text></g></g><g id="SvgjsG1084"><path id="SvgjsPath1085" d="M211 213.25L211 261.5L270.8 261.5" stroke="#323232" stroke-width="1.5" fill="none" marker-end="url(#SvgjsMarker1086)"></path></g><g id="SvgjsG1088"><path id="SvgjsPath1089" d="M460 213.25L460 261.5L389.2 261.5" stroke="#323232" stroke-width="1.5" fill="none" marker-end="url(#SvgjsMarker1090)"></path></g><g id="SvgjsG1092"><path id="SvgjsPath1093" d="M330 279L330 298.875L330 298.875L330 316.8" stroke="#323232" stroke-width="1.5" fill="none" marker-end="url(#SvgjsMarker1094)"></path></g><g id="SvgjsG1096"><path id="SvgjsPath1097" d="M330 279L330 298.875L169.5 298.875L169.5 316.8" stroke="#323232" stroke-width="1.5" fill="none" marker-end="url(#SvgjsMarker1098)"></path></g><g id="SvgjsG1100"><path id="SvgjsPath1101" d="M330 279L330 298.875L487 298.875L487 316.8" stroke="#323232" stroke-width="1.5" fill="none" marker-end="url(#SvgjsMarker1102)"></path></g><g id="SvgjsG1104" transform="translate(415,386.5)"><path id="SvgjsPath1105" d="M 0 0L 144 0L 144 33.5L 0 33.5Z" stroke="rgba(33,41,48,1)" stroke-width="1.5" fill-opacity="1" fill="#ffffff"></path><g id="SvgjsG1106"><text id="SvgjsText1107" font-family="&quot;Microsoft YaHei&quot;, 微软雅黑, Arial" text-anchor="middle" font-size="13px" width="124px" fill="#323232" font-weight="400" align="middle" lineHeight="125%" anchor="middle" family="&quot;Microsoft YaHei&quot;, 微软雅黑, Arial" size="13px" weight="400" font-style="" opacity="1" y="6.125" transform="rotate(0)"><tspan id="SvgjsTspan1108" dy="16.25" x="72"><tspan id="SvgjsTspan1109" style="">/etc/resolv.conf</tspan></tspan></text></g></g><g id="SvgjsG1110"><path id="SvgjsPath1111" d="M487 353.75L487 369.75L487 369.75L487 383.8" stroke="#323232" stroke-width="1.5" fill="none" marker-end="url(#SvgjsMarker1112)"></path></g><g id="SvgjsG1114"></g></svg>