<svg id="SvgjsSvg1060" width="602" height="263" xmlns="http://www.w3.org/2000/svg" version="1.1" xmlns:xlink="http://www.w3.org/1999/xlink" xmlns:svgjs="http://svgjs.com/svgjs"><defs id="SvgjsDefs1061"><pattern patternUnits="userSpaceOnUse" id="pattern_mark_0" width="300" height="300"><text x="150" y="100" fill="rgba(229,229,229,0.8)" font-size="18" transform="rotate(-45, 150, 150)" style="dominant-baseline: middle; text-anchor: middle;"></text></pattern><pattern patternUnits="userSpaceOnUse" id="pattern_mark_1" width="300" height="300"><text x="150" y="200" fill="rgba(229,229,229,0.8)" font-size="18" transform="rotate(-45, 150, 150)" style="dominant-baseline: middle; text-anchor: middle;"></text></pattern><marker id="SvgjsMarker1091" markerWidth="13" markerHeight="9" refX="9.5" refY="4.5" viewBox="0 0 13 9" orient="auto" markerUnits="userSpaceOnUse" stroke-dasharray="0,0"><path id="SvgjsPath1092" d="M0,0 L13,4.5 L0,9 L0,0" fill="#323232" stroke="#323232" stroke-width="1"></path></marker><marker id="SvgjsMarker1099" markerWidth="13" markerHeight="9" refX="9.5" refY="4.5" viewBox="0 0 13 9" orient="auto" markerUnits="userSpaceOnUse" stroke-dasharray="0,0"><path id="SvgjsPath1100" d="M0,0 L13,4.5 L0,9 L0,0" fill="#323232" stroke="#323232" stroke-width="1"></path></marker><marker id="SvgjsMarker1107" markerWidth="13" markerHeight="9" refX="9.5" refY="4.5" viewBox="0 0 13 9" orient="auto" markerUnits="userSpaceOnUse" stroke-dasharray="0,0"><path id="SvgjsPath1108" d="M0,0 L13,4.5 L0,9 L0,0" fill="#323232" stroke="#323232" stroke-width="1"></path></marker></defs><rect id="svgbackgroundid" width="602" height="263" fill="transparent"></rect><rect id="SvgjsRect1063" width="602" height="263" fill="url(#pattern_mark_0)"></rect><rect id="SvgjsRect1064" width="602" height="263" fill="url(#pattern_mark_1)"></rect><g id="SvgjsG1065" transform="translate(25,25)"><path id="SvgjsPath1066" d="M 0 4Q 0 0 4 0L 147 0Q 151 0 151 4L 151 50Q 151 54 147 54L 4 54Q 0 54 0 50Z" stroke="rgba(33,41,48,1)" stroke-width="1.5" fill-opacity="1" fill="#ffffff"></path><g id="SvgjsG1067"><text id="SvgjsText1068" font-family="&quot;Microsoft YaHei&quot;, 微软雅黑, Arial" text-anchor="middle" font-size="13px" width="131px" fill="#323232" font-weight="400" align="middle" lineHeight="125%" anchor="middle" family="&quot;Microsoft YaHei&quot;, 微软雅黑, Arial" size="13px" weight="400" font-style="" opacity="1" y="16.375" transform="rotate(0)"><tspan id="SvgjsTspan1069" dy="16.25" x="75.5"><tspan id="SvgjsTspan1070" style="">rsyslog log client</tspan></tspan></text></g></g><g id="SvgjsG1071" transform="translate(25,108)"><path id="SvgjsPath1072" d="M 0 4Q 0 0 4 0L 147 0Q 151 0 151 4L 151 50Q 151 54 147 54L 4 54Q 0 54 0 50Z" stroke="rgba(33,41,48,1)" stroke-width="1.5" fill-opacity="1" fill="#ffffff"></path><g id="SvgjsG1073"><text id="SvgjsText1074" font-family="&quot;Microsoft YaHei&quot;, 微软雅黑, Arial" text-anchor="middle" font-size="13px" width="131px" fill="#323232" font-weight="400" align="middle" lineHeight="125%" anchor="middle" family="&quot;Microsoft YaHei&quot;, 微软雅黑, Arial" size="13px" weight="400" font-style="" opacity="1" y="16.375" transform="rotate(0)"><tspan id="SvgjsTspan1075" dy="16.25" x="75.5"><tspan id="SvgjsTspan1076" style="">rsyslog log client2</tspan></tspan></text></g></g><g id="SvgjsG1077" transform="translate(25,184)"><path id="SvgjsPath1078" d="M 0 4Q 0 0 4 0L 147 0Q 151 0 151 4L 151 50Q 151 54 147 54L 4 54Q 0 54 0 50Z" stroke="rgba(33,41,48,1)" stroke-width="1.5" fill-opacity="1" fill="#ffffff"></path><g id="SvgjsG1079"><text id="SvgjsText1080" font-family="&quot;Microsoft YaHei&quot;, 微软雅黑, Arial" text-anchor="middle" font-size="13px" width="131px" fill="#323232" font-weight="400" align="middle" lineHeight="125%" anchor="middle" family="&quot;Microsoft YaHei&quot;, 微软雅黑, Arial" size="13px" weight="400" font-style="" opacity="1" y="16.375" transform="rotate(0)"><tspan id="SvgjsTspan1081" dy="16.25" x="75.5"><tspan id="SvgjsTspan1082" style="">rsyslog log client3</tspan></tspan></text></g></g><g id="SvgjsG1083" transform="translate(302,108)"><path id="SvgjsPath1084" d="M 0 4Q 0 0 4 0L 147 0Q 151 0 151 4L 151 50Q 151 54 147 54L 4 54Q 0 54 0 50Z" stroke="rgba(33,41,48,1)" stroke-width="1.5" fill-opacity="1" fill="#ffffff"></path><g id="SvgjsG1085"><text id="SvgjsText1086" font-family="&quot;Microsoft YaHei&quot;, 微软雅黑, Arial" text-anchor="middle" font-size="13px" width="131px" fill="#323232" font-weight="400" align="middle" lineHeight="125%" anchor="middle" family="&quot;Microsoft YaHei&quot;, 微软雅黑, Arial" size="13px" weight="400" font-style="" opacity="1" y="16.375" transform="rotate(0)"><tspan id="SvgjsTspan1087" dy="16.25" x="75.5"><tspan id="SvgjsTspan1088" style="">rsyslog log host</tspan></tspan></text></g></g><g id="SvgjsG1089"><path id="SvgjsPath1090" d="M176.75 135L239 135L239 135L299.3 135" stroke="#323232" stroke-width="1.5" fill="none" marker-end="url(#SvgjsMarker1091)"></path><rect id="SvgjsRect1093" width="19.666666" height="17" x="235.00000033333336" y="126.5" fill="#ffffff"></rect><text id="SvgjsText1094" font-family="&quot;Microsoft YaHei&quot;, 微软雅黑, Arial" text-anchor="middle" font-size="13px" width="19.6667px" fill="#323232" font-weight="400" align="top" lineHeight="16px" anchor="middle" family="&quot;Microsoft YaHei&quot;, 微软雅黑, Arial" size="13px" weight="400" font-style="" opacity="1" y="123.875" transform="rotate(0)"><tspan id="SvgjsTspan1095" dy="16.25" x="244.50000033333336"><tspan id="SvgjsTspan1096" style="">tcp</tspan></tspan></text></g><g id="SvgjsG1097"><path id="SvgjsPath1098" d="M176.75 211L377.5 211L377.5 164.7" stroke="#323232" stroke-width="1.5" fill="none" marker-end="url(#SvgjsMarker1099)"></path><rect id="SvgjsRect1101" width="24.666666" height="17" x="282.7639723892216" y="202.5" fill="#ffffff"></rect><text id="SvgjsText1102" font-family="&quot;Microsoft YaHei&quot;, 微软雅黑, Arial" text-anchor="middle" font-size="13px" width="24.6667px" fill="#323232" font-weight="400" align="top" lineHeight="16px" anchor="middle" family="&quot;Microsoft YaHei&quot;, 微软雅黑, Arial" size="13px" weight="400" font-style="" opacity="1" y="199.875" transform="rotate(0)"><tspan id="SvgjsTspan1103" dy="16.25" x="294.7639723892216"><tspan id="SvgjsTspan1104" style="">udp</tspan></tspan></text></g><g id="SvgjsG1105"><path id="SvgjsPath1106" d="M176.75 52L377.5 52L377.5 105.30000000000001" stroke="#323232" stroke-width="1.5" fill="none" marker-end="url(#SvgjsMarker1107)"></path><rect id="SvgjsRect1109" width="24.666666" height="17" x="266.036667" y="43.5" fill="#ffffff"></rect><text id="SvgjsText1110" font-family="&quot;Microsoft YaHei&quot;, 微软雅黑, Arial" text-anchor="middle" font-size="13px" width="24.6667px" fill="#323232" font-weight="400" align="top" lineHeight="16px" anchor="middle" family="&quot;Microsoft YaHei&quot;, 微软雅黑, Arial" size="13px" weight="400" font-style="" opacity="1" y="40.875" transform="rotate(0)"><tspan id="SvgjsTspan1111" dy="16.25" x="278.036667"><tspan id="SvgjsTspan1112" style="">udp</tspan></tspan></text></g><g id="SvgjsG1113" transform="translate(457,70)"><path id="SvgjsPath1114" d="M 0 140Q 9 140 9 131L 9 79Q 9 70 22 70Q 9 70 9 61L 9 9Q 9 0 0 0" stroke="rgba(33,41,48,1)" stroke-width="1.5" fill="none"></path><path id="SvgjsPath1115" d="M 0 0L 120 0L 120 140L 0 140Z" stroke="none" fill="none"></path><g id="SvgjsG1116"><text id="SvgjsText1117" font-family="&quot;Microsoft YaHei&quot;, 微软雅黑, Arial" text-anchor="start" font-size="13px" width="93px" fill="#323232" font-weight="400" align="middle" lineHeight="125%" anchor="start" family="&quot;Microsoft YaHei&quot;, 微软雅黑, Arial" size="13px" weight="400" font-style="" opacity="1" y="50.875" transform="rotate(0)"><tspan id="SvgjsTspan1118" dy="16.25" x="27"><tspan id="SvgjsTspan1119" style="">aggregation </tspan></tspan><tspan id="SvgjsTspan1120" dy="16.25" x="27"><tspan id="SvgjsTspan1121" style="">server</tspan></tspan></text></g></g><g id="SvgjsG1122"></g></svg>