<svg id="SvgjsSvg1090" width="497.8125" height="501" xmlns="http://www.w3.org/2000/svg" version="1.1" xmlns:xlink="http://www.w3.org/1999/xlink" xmlns:svgjs="http://svgjs.com/svgjs"><defs id="SvgjsDefs1091"><pattern patternUnits="userSpaceOnUse" id="pattern_mark_0" width="300" height="300"><text x="150" y="100" fill="rgba(229,229,229,0.8)" font-size="18" transform="rotate(-45, 150, 150)" style="dominant-baseline: middle; text-anchor: middle;"></text></pattern><pattern patternUnits="userSpaceOnUse" id="pattern_mark_1" width="300" height="300"><text x="150" y="200" fill="rgba(229,229,229,0.8)" font-size="18" transform="rotate(-45, 150, 150)" style="dominant-baseline: middle; text-anchor: middle;"></text></pattern><marker id="SvgjsMarker1119" markerWidth="13" markerHeight="9" refX="9.5" refY="4.5" viewBox="0 0 13 9" orient="auto" markerUnits="userSpaceOnUse" stroke-dasharray="0,0"><path id="SvgjsPath1120" d="M0,0 L13,4.5 L0,9 L0,0" fill="#323232" stroke="#323232" stroke-width="1"></path></marker><marker id="SvgjsMarker1123" markerWidth="13" markerHeight="9" refX="9.5" refY="4.5" viewBox="0 0 13 9" orient="auto" markerUnits="userSpaceOnUse" stroke-dasharray="0,0"><path id="SvgjsPath1124" d="M0,0 L13,4.5 L0,9 L0,0" fill="#323232" stroke="#323232" stroke-width="1"></path></marker><marker id="SvgjsMarker1143" markerWidth="13" markerHeight="9" refX="9.5" refY="4.5" viewBox="0 0 13 9" orient="auto" markerUnits="userSpaceOnUse" stroke-dasharray="0,0"><path id="SvgjsPath1144" d="M0,0 L13,4.5 L0,9 L0,0" fill="#323232" stroke="#323232" stroke-width="1"></path></marker><marker id="SvgjsMarker1147" markerWidth="13" markerHeight="9" refX="9.5" refY="4.5" viewBox="0 0 13 9" orient="auto" markerUnits="userSpaceOnUse" stroke-dasharray="0,0"><path id="SvgjsPath1148" d="M0,0 L13,4.5 L0,9 L0,0" fill="#323232" stroke="#323232" stroke-width="1"></path></marker><marker id="SvgjsMarker1151" markerWidth="13" markerHeight="9" refX="9.5" refY="4.5" viewBox="0 0 13 9" orient="auto" markerUnits="userSpaceOnUse" stroke-dasharray="0,0"><path id="SvgjsPath1152" d="M0,0 L13,4.5 L0,9 L0,0" fill="#323232" stroke="#323232" stroke-width="1"></path></marker><marker id="SvgjsMarker1183" markerWidth="13" markerHeight="9" refX="9.5" refY="4.5" viewBox="0 0 13 9" orient="auto" markerUnits="userSpaceOnUse" stroke-dasharray="0,0"><path id="SvgjsPath1184" d="M0,0 L13,4.5 L0,9 L0,0" fill="#323232" stroke="#323232" stroke-width="1"></path></marker><marker id="SvgjsMarker1187" markerWidth="13" markerHeight="9" refX="9.5" refY="4.5" viewBox="0 0 13 9" orient="auto" markerUnits="userSpaceOnUse" stroke-dasharray="0,0"><path id="SvgjsPath1188" d="M0,0 L13,4.5 L0,9 L0,0" fill="#323232" stroke="#323232" stroke-width="1"></path></marker><marker id="SvgjsMarker1191" markerWidth="13" markerHeight="9" refX="9.5" refY="4.5" viewBox="0 0 13 9" orient="auto" markerUnits="userSpaceOnUse" stroke-dasharray="0,0"><path id="SvgjsPath1192" d="M0,0 L13,4.5 L0,9 L0,0" fill="#323232" stroke="#323232" stroke-width="1"></path></marker><marker id="SvgjsMarker1195" markerWidth="13" markerHeight="9" refX="9.5" refY="4.5" viewBox="0 0 13 9" orient="auto" markerUnits="userSpaceOnUse" stroke-dasharray="0,0"><path id="SvgjsPath1196" d="M0,0 L13,4.5 L0,9 L0,0" fill="#323232" stroke="#323232" stroke-width="1"></path></marker></defs><rect id="svgbackgroundid" width="497.8125" height="501" fill="transparent"></rect><rect id="SvgjsRect1093" width="497.8125" height="501" fill="url(#pattern_mark_0)"></rect><rect id="SvgjsRect1094" width="497.8125" height="501" fill="url(#pattern_mark_1)"></rect><g id="SvgjsG1095" transform="translate(196.25,25)"><path id="SvgjsPath1096" d="M 16.666666666666668 0L 111.33333333333333 0C 133.55555555555554 0 133.55555555555554 50 111.33333333333333 50L 16.666666666666668 50C -5.555555555555556 50 -5.555555555555556 0 16.666666666666668 0Z" stroke="rgba(33,41,48,1)" stroke-width="1.5" fill-opacity="1" fill="#ffffff"></path><g id="SvgjsG1097"><text id="SvgjsText1098" font-family="&quot;Microsoft YaHei&quot;, 微软雅黑, Arial" text-anchor="middle" font-size="13px" width="108px" fill="#323232" font-weight="400" align="middle" lineHeight="125%" anchor="middle" family="&quot;Microsoft YaHei&quot;, 微软雅黑, Arial" size="13px" weight="400" font-style="" opacity="1" y="14.375" transform="rotate(0)"><tspan id="SvgjsTspan1099" dy="16.25" x="64"><tspan id="SvgjsTspan1100" style="">systemd-timer</tspan></tspan></text></g></g><g id="SvgjsG1101" transform="translate(96.25,122)"><path id="SvgjsPath1102" d="M 0 0L 100 0L 100 38L 0 38Z" stroke="rgba(33,41,48,1)" stroke-width="1.5" fill-opacity="1" fill="#ffffff"></path><g id="SvgjsG1103"><text id="SvgjsText1104" font-family="&quot;Microsoft YaHei&quot;, 微软雅黑, Arial" text-anchor="middle" font-size="13px" width="80px" fill="#323232" font-weight="400" align="middle" lineHeight="125%" anchor="middle" family="&quot;Microsoft YaHei&quot;, 微软雅黑, Arial" size="13px" weight="400" font-style="" opacity="1" y="-0.125" transform="rotate(0)"><tspan id="SvgjsTspan1105" dy="16.25" x="50"><tspan id="SvgjsTspan1106" style="">persistent </tspan></tspan><tspan id="SvgjsTspan1107" dy="16.25" x="50"><tspan id="SvgjsTspan1108" style="">timer</tspan></tspan></text></g></g><g id="SvgjsG1109" transform="translate(336.25,126)"><path id="SvgjsPath1110" d="M 0 0L 100 0L 100 38L 0 38Z" stroke="rgba(33,41,48,1)" stroke-width="1.5" fill-opacity="1" fill="#ffffff"></path><g id="SvgjsG1111"><text id="SvgjsText1112" font-family="&quot;Microsoft YaHei&quot;, 微软雅黑, Arial" text-anchor="middle" font-size="13px" width="80px" fill="#323232" font-weight="400" align="middle" lineHeight="125%" anchor="middle" family="&quot;Microsoft YaHei&quot;, 微软雅黑, Arial" size="13px" weight="400" font-style="" opacity="1" y="-0.125" transform="rotate(0)"><tspan id="SvgjsTspan1113" dy="16.25" x="50"><tspan id="SvgjsTspan1114" style="">transient </tspan></tspan><tspan id="SvgjsTspan1115" dy="16.25" x="50"><tspan id="SvgjsTspan1116" style="">timer</tspan></tspan></text></g></g><g id="SvgjsG1117"><path id="SvgjsPath1118" d="M260.25 75.75L260.25 98.5L146.25 98.5L146.25 119.3" stroke="#323232" stroke-width="1.5" fill="none" marker-end="url(#SvgjsMarker1119)"></path></g><g id="SvgjsG1121"><path id="SvgjsPath1122" d="M260.25 75.75L260.25 98.5L386.25 98.5L386.25 112.25L386.25 112.25L386.25 123.3" stroke="#323232" stroke-width="1.5" fill="none" marker-end="url(#SvgjsMarker1123)"></path></g><g id="SvgjsG1125" transform="translate(88.25,289)"><path id="SvgjsPath1126" d="M 0 0L 100 0L 100 38L 0 38Z" stroke="rgba(33,41,48,1)" stroke-width="1.5" fill-opacity="1" fill="#ffffff"></path><g id="SvgjsG1127"><text id="SvgjsText1128" font-family="&quot;Microsoft YaHei&quot;, 微软雅黑, Arial" text-anchor="middle" font-size="13px" width="80px" fill="#323232" font-weight="400" align="middle" lineHeight="125%" anchor="middle" family="&quot;Microsoft YaHei&quot;, 微软雅黑, Arial" size="13px" weight="400" font-style="" opacity="1" y="-0.125" transform="rotate(0)"><tspan id="SvgjsTspan1129" dy="16.25" x="50"><tspan id="SvgjsTspan1130" style="">create timer </tspan></tspan><tspan id="SvgjsTspan1131" dy="16.25" x="50"><tspan id="SvgjsTspan1132" style="">unit</tspan></tspan></text></g></g><g id="SvgjsG1133" transform="translate(72.25,350.5)"><path id="SvgjsPath1134" d="M 0 0L 132 0L 132 38L 0 38Z" stroke="rgba(33,41,48,1)" stroke-width="1.5" fill-opacity="1" fill="#ffffff"></path><g id="SvgjsG1135"><text id="SvgjsText1136" font-family="&quot;Microsoft YaHei&quot;, 微软雅黑, Arial" text-anchor="middle" font-size="13px" width="112px" fill="#323232" font-weight="400" align="middle" lineHeight="125%" anchor="middle" family="&quot;Microsoft YaHei&quot;, 微软雅黑, Arial" size="13px" weight="400" font-style="" opacity="1" y="-0.125" transform="rotate(0)"><tspan id="SvgjsTspan1137" dy="16.25" x="66"><tspan id="SvgjsTspan1138" style="">create relevant </tspan></tspan><tspan id="SvgjsTspan1139" dy="16.25" x="66"><tspan id="SvgjsTspan1140" style="">service</tspan></tspan></text></g></g><g id="SvgjsG1141"><path id="SvgjsPath1142" d="M138.25 327.75L138.25 338.75L138.25 338.75L138.25 347.8" stroke="#323232" stroke-width="1.5" fill="none" marker-end="url(#SvgjsMarker1143)"></path></g><g id="SvgjsG1145"><path id="SvgjsPath1146" d="M138.25 389.25L138.25 406.75L138.25 406.75L138.25 423.05" stroke="#323232" stroke-width="1.5" fill="none" marker-end="url(#SvgjsMarker1147)"></path></g><g id="SvgjsG1149"><path id="SvgjsPath1150" d="M386.25 164.75L386.25 203.75L386.25 203.75L386.25 241.55" stroke="#323232" stroke-width="1.5" fill="none" marker-end="url(#SvgjsMarker1151)"></path></g><g id="SvgjsG1153" transform="translate(299.6875,243.5)"><path id="SvgjsPath1154" d="M 0 0L 157.125 0L 173.125 16L 173.125 60L 0 60L 0 0Z" stroke="none" fill-opacity="1" fill="#fff7bc"></path><path id="SvgjsPath1155" d="M 157.125 0L 157.125 16L 173.125 16Z" stroke="none" fill-opacity="1" fill="#e4d089"></path><path id="SvgjsPath1156" d="M 0 0L 157.125 0L 173.125 16L 173.125 60L 0 60L 0 0Z" stroke="none" fill="none"></path><g id="SvgjsG1157"><text id="SvgjsText1158" font-family="&quot;Microsoft YaHei&quot;, 微软雅黑, Arial" text-anchor="middle" font-size="13px" width="154px" fill="#323232" font-weight="400" align="middle" lineHeight="125%" anchor="middle" family="&quot;Microsoft YaHei&quot;, 微软雅黑, Arial" size="13px" weight="400" font-style="" opacity="1" y="2.875" transform="rotate(0)"><tspan id="SvgjsTspan1159" dy="16.25" x="87"><tspan id="SvgjsTspan1160" style="">system-run --on-</tspan></tspan><tspan id="SvgjsTspan1161" dy="16.25" x="87"><tspan id="SvgjsTspan1162" style="">calendar='2022-08-14 </tspan></tspan><tspan id="SvgjsTspan1163" dy="16.25" x="87"><tspan id="SvgjsTspan1164" style="">18:00' /bin/echo  test</tspan></tspan></text></g></g><g id="SvgjsG1165" transform="translate(25.25,205.5)"><path id="SvgjsPath1166" d="M 0 0L 100 0L 100 38L 0 38Z" stroke="rgba(33,41,48,1)" stroke-width="1.5" fill-opacity="1" fill="#ffffff"></path><g id="SvgjsG1167"><text id="SvgjsText1168" font-family="&quot;Microsoft YaHei&quot;, 微软雅黑, Arial" text-anchor="middle" font-size="13px" width="80px" fill="#323232" font-weight="400" align="middle" lineHeight="125%" anchor="middle" family="&quot;Microsoft YaHei&quot;, 微软雅黑, Arial" size="13px" weight="400" font-style="" opacity="1" y="-0.125" transform="rotate(0)"><tspan id="SvgjsTspan1169" dy="16.25" x="50"><tspan id="SvgjsTspan1170" style="">cron-like </tspan></tspan><tspan id="SvgjsTspan1171" dy="16.25" x="50"><tspan id="SvgjsTspan1172" style="">style</tspan></tspan></text></g></g><g id="SvgjsG1173" transform="translate(161.25,205.5)"><path id="SvgjsPath1174" d="M 0 0L 100 0L 100 38L 0 38Z" stroke="rgba(33,41,48,1)" stroke-width="1.5" fill-opacity="1" fill="#ffffff"></path><g id="SvgjsG1175"><text id="SvgjsText1176" font-family="&quot;Microsoft YaHei&quot;, 微软雅黑, Arial" text-anchor="middle" font-size="13px" width="80px" fill="#323232" font-weight="400" align="middle" lineHeight="125%" anchor="middle" family="&quot;Microsoft YaHei&quot;, 微软雅黑, Arial" size="13px" weight="400" font-style="" opacity="1" y="-0.125" transform="rotate(0)"><tspan id="SvgjsTspan1177" dy="16.25" x="50"><tspan id="SvgjsTspan1178" style="">unit-based </tspan></tspan><tspan id="SvgjsTspan1179" dy="16.25" x="50"><tspan id="SvgjsTspan1180" style="">style</tspan></tspan></text></g></g><g id="SvgjsG1181"><path id="SvgjsPath1182" d="M146.25 160.75L146.25 179.75L75.25 179.75L75.25 202.8" stroke="#323232" stroke-width="1.5" fill="none" marker-end="url(#SvgjsMarker1183)"></path></g><g id="SvgjsG1185"><path id="SvgjsPath1186" d="M146.25 160.75L146.25 179.5L211.25 179.5L211.25 202.8" stroke="#323232" stroke-width="1.5" fill="none" marker-end="url(#SvgjsMarker1187)"></path></g><g id="SvgjsG1189"><path id="SvgjsPath1190" d="M75.25 244.25L75.25 266.25L138.25 266.25L138.25 286.3" stroke="#323232" stroke-width="1.5" fill="none" marker-end="url(#SvgjsMarker1191)"></path></g><g id="SvgjsG1193"><path id="SvgjsPath1194" d="M211.25 244.25L211.25 266.25L138.25 266.25L138.25 286.3" stroke="#323232" stroke-width="1.5" fill="none" marker-end="url(#SvgjsMarker1195)"></path></g><g id="SvgjsG1197" transform="translate(25,425)"><path id="SvgjsPath1198" d="M 0 0L 210.5 0L 226.5 16L 226.5 51L 0 51L 0 0Z" stroke="none" fill-opacity="1" fill="#fff7bc"></path><path id="SvgjsPath1199" d="M 210.5 0L 210.5 16L 226.5 16Z" stroke="none" fill-opacity="1" fill="#e4d089"></path><path id="SvgjsPath1200" d="M 0 0L 210.5 0L 226.5 16L 226.5 51L 0 51L 0 0Z" stroke="none" fill="none"></path><g id="SvgjsG1201"><text id="SvgjsText1202" font-family="&quot;Microsoft YaHei&quot;, 微软雅黑, Arial" text-anchor="middle" font-size="13px" width="207px" fill="#323232" font-weight="400" align="middle" lineHeight="125%" anchor="middle" family="&quot;Microsoft YaHei&quot;, 微软雅黑, Arial" size="13px" weight="400" font-style="" opacity="1" y="14.875" transform="rotate(0)"><tspan id="SvgjsTspan1203" dy="16.25" x="113.5"><tspan id="SvgjsTspan1204" style="">systemctl enbale xxx.timer --now</tspan></tspan></text></g></g><g id="SvgjsG1205"></g></svg>