<svg id="SvgjsSvg1095" width="499.74998474121094" height="611.9999885559082" xmlns="http://www.w3.org/2000/svg" version="1.1" xmlns:xlink="http://www.w3.org/1999/xlink" xmlns:svgjs="http://svgjs.com/svgjs"><defs id="SvgjsDefs1096"><pattern patternUnits="userSpaceOnUse" id="pattern_mark_0" width="300" height="300"><text x="150" y="100" fill="rgba(229,229,229,0.8)" font-size="18" transform="rotate(-45, 150, 150)" style="dominant-baseline: middle; text-anchor: middle;"></text></pattern><pattern patternUnits="userSpaceOnUse" id="pattern_mark_1" width="300" height="300"><text x="150" y="200" fill="rgba(229,229,229,0.8)" font-size="18" transform="rotate(-45, 150, 150)" style="dominant-baseline: middle; text-anchor: middle;"></text></pattern><marker id="SvgjsMarker1116" markerWidth="13" markerHeight="9" refX="9.5" refY="4.5" viewBox="0 0 13 9" orient="auto" markerUnits="userSpaceOnUse" stroke-dasharray="0,0"><path id="SvgjsPath1117" d="M0,0 L13,4.5 L0,9 L0,0" fill="#ec7270" stroke="#ec7270" stroke-width="1"></path></marker><marker id="SvgjsMarker1166" markerWidth="13" markerHeight="9" refX="9.5" refY="4.5" viewBox="0 0 13 9" orient="auto" markerUnits="userSpaceOnUse" stroke-dasharray="0,0"><path id="SvgjsPath1167" d="M0,0 L13,4.5 L0,9 L0,0" fill="#5b79e8" stroke="#5b79e8" stroke-width="1"></path></marker><marker id="SvgjsMarker1170" markerWidth="13" markerHeight="9" refX="9.5" refY="4.5" viewBox="0 0 13 9" orient="auto" markerUnits="userSpaceOnUse" stroke-dasharray="0,0"><path id="SvgjsPath1171" d="M0,0 L13,4.5 L0,9 L0,0" fill="#ec7270" stroke="#ec7270" stroke-width="1"></path></marker><marker id="SvgjsMarker1174" markerWidth="13" markerHeight="9" refX="9.5" refY="4.5" viewBox="0 0 13 9" orient="auto" markerUnits="userSpaceOnUse" stroke-dasharray="0,0"><path id="SvgjsPath1175" d="M0,0 L13,4.5 L0,9 L0,0" fill="#ec7270" stroke="#ec7270" stroke-width="1"></path></marker><marker id="SvgjsMarker1178" markerWidth="13" markerHeight="9" refX="9.5" refY="4.5" viewBox="0 0 13 9" orient="auto" markerUnits="userSpaceOnUse" stroke-dasharray="0,0"><path id="SvgjsPath1179" d="M0,0 L13,4.5 L0,9 L0,0" fill="#5b79e8" stroke="#5b79e8" stroke-width="1"></path></marker><marker id="SvgjsMarker1182" markerWidth="13" markerHeight="9" refX="9.5" refY="4.5" viewBox="0 0 13 9" orient="auto" markerUnits="userSpaceOnUse" stroke-dasharray="0,0"><path id="SvgjsPath1183" d="M0,0 L13,4.5 L0,9 L0,0" fill="#ec7270" stroke="#ec7270" stroke-width="1"></path></marker></defs><rect id="svgbackgroundid" width="499.74998474121094" height="611.9999885559082" fill="transparent"></rect><rect id="SvgjsRect1098" width="499.74998474121094" height="611.9999885559082" fill="url(#pattern_mark_0)"></rect><rect id="SvgjsRect1099" width="499.74998474121094" height="611.9999885559082" fill="url(#pattern_mark_1)"></rect><g id="SvgjsG1100" transform="translate(205.26740155901234,25.014736720493858)"><path id="SvgjsPath1101" d="M 0 0L 96 0L 96 54L 0 54Z" stroke="rgba(33,41,48,1)" stroke-width="1.5" fill-opacity="1" fill="#f19594"></path><g id="SvgjsG1102"><text id="SvgjsText1103" font-family="微软雅黑" text-anchor="middle" font-size="13px" width="76px" fill="#323232" font-weight="400" align="middle" lineHeight="125%" anchor="middle" family="微软雅黑" size="13px" weight="400" font-style="" opacity="1" y="16.375" transform="rotate(0)"><tspan id="SvgjsTspan1104" dy="16" x="48"><tspan id="SvgjsTspan1105" style="text-decoration:;">login shell</tspan></tspan></text></g></g><g id="SvgjsG1106" transform="translate(360.41025870186945,25.014736720493858)"><path id="SvgjsPath1107" d="M 0 0L 96 0L 96 54L 0 54Z" stroke="rgba(33,41,48,1)" stroke-width="1.5" fill-opacity="1" fill="#b0e38f"></path><g id="SvgjsG1108"><text id="SvgjsText1109" font-family="微软雅黑" text-anchor="middle" font-size="13px" width="76px" fill="#323232" font-weight="400" align="middle" lineHeight="125%" anchor="middle" family="微软雅黑" size="13px" weight="400" font-style="" opacity="1" y="7.875" transform="rotate(0)"><tspan id="SvgjsTspan1110" dy="16" x="48"><tspan id="SvgjsTspan1111" style="text-decoration:;">non-login </tspan></tspan><tspan id="SvgjsTspan1112" dy="16" x="48"><tspan id="SvgjsTspan1113" style="text-decoration:;">shell</tspan></tspan></text></g></g><g id="SvgjsG1114"><path id="SvgjsPath1115" d="M253.2674015590124 79.76473672049386L253.2674015590124 119.51473672049389L253.2674015590124 119.51473672049389L253.2674015590124 157.3147367204939" stroke="#ec7270" stroke-width="1.5" fill="none" marker-end="url(#SvgjsMarker1116)"></path></g><g id="SvgjsG1118" transform="translate(205.26740155901234,160.0147367204939)"><path id="SvgjsPath1119" d="M 0 0L 96 0L 96 54L 0 54Z" stroke="rgba(33,41,48,1)" stroke-width="1.5" fill-opacity="1" fill="#f19594"></path><g id="SvgjsG1120"><text id="SvgjsText1121" font-family="微软雅黑" text-anchor="middle" font-size="13px" width="76px" fill="#323232" font-weight="400" align="middle" lineHeight="125%" anchor="middle" family="微软雅黑" size="13px" weight="400" font-style="" opacity="1" y="16.375" transform="rotate(0)"><tspan id="SvgjsTspan1122" dy="16" x="48"><tspan id="SvgjsTspan1123" style="text-decoration:;">/etc/.profile</tspan></tspan></text></g></g><g id="SvgjsG1124" transform="translate(342.25489662374775,284.01473672049383)"><path id="SvgjsPath1125" d="M 0 0L 132.3107241562434 0L 132.3107241562434 54L 0 54Z" stroke="rgba(33,41,48,1)" stroke-width="1.5" fill-opacity="1" fill="#b0e38f"></path><g id="SvgjsG1126"><text id="SvgjsText1127" font-family="微软雅黑" text-anchor="middle" font-size="13px" width="113px" fill="#323232" font-weight="400" align="middle" lineHeight="125%" anchor="middle" family="微软雅黑" size="13px" weight="400" font-style="" opacity="1" y="16.375" transform="rotate(0)"><tspan id="SvgjsTspan1128" dy="16" x="66.5"><tspan id="SvgjsTspan1129" style="text-decoration:;">/etc/bash.bashrc</tspan></tspan></text></g></g><g id="SvgjsG1130" transform="translate(162.26740155901234,413.42187881469727)"><path id="SvgjsPath1131" d="M 0 0L 179.98749506473544 0L 179.98749506473544 98.5928598131452L 0 98.5928598131452Z" stroke="rgba(33,41,48,1)" stroke-width="1.5" fill-opacity="1" fill="#f19594"></path><g id="SvgjsG1132"><text id="SvgjsText1133" font-family="微软雅黑" text-anchor="middle" font-size="13px" width="160px" fill="#323232" font-weight="400" align="middle" lineHeight="125%" anchor="middle" family="微软雅黑" size="13px" weight="400" font-style="" opacity="1" y="6.171429906572598" transform="rotate(0)"><tspan id="SvgjsTspan1134" dy="16" x="90"><tspan id="SvgjsTspan1135" style="text-decoration:;font-weight: bold;">~/.bash_profile or </tspan></tspan><tspan id="SvgjsTspan1136" dy="16" x="90"><tspan id="SvgjsTspan1137" style="text-decoration:;font-weight: bold;">~/.bash_login or </tspan></tspan><tspan id="SvgjsTspan1138" dy="16" x="90"><tspan id="SvgjsTspan1139" style="text-decoration:;font-weight: bold;">~/.profile</tspan></tspan><tspan id="SvgjsTspan1140" dy="16" x="90"><tspan id="SvgjsTspan1141" style="text-decoration:;">(read only one respect </tspan></tspan><tspan id="SvgjsTspan1142" dy="16" x="90"><tspan id="SvgjsTspan1143" style="text-decoration:;">thier orders)</tspan></tspan></text></g></g><g id="SvgjsG1144" transform="translate(55.26740155901237,169.01473481314522)"><path id="SvgjsPath1145" d="M 120 0Q 111 0 111 9L 111 75.50000095367432Q 111 84.50000095367432 98 84.50000095367432Q 111 84.50000095367432 111 93.50000095367432L 111 160.00000190734863Q 111 169.00000190734863 120 169.00000190734863" stroke="rgba(33,41,48,1)" stroke-width="1.5" fill="none"></path><path id="SvgjsPath1146" d="M 0 0L 120 0L 120 169.00000190734863L 0 169.00000190734863Z" stroke="none" fill="none"></path><g id="SvgjsG1147"><text id="SvgjsText1148" font-family="微软雅黑" text-anchor="end" font-size="13px" width="93px" fill="#323232" font-weight="400" align="middle" lineHeight="125%" anchor="end" family="微软雅黑" size="13px" weight="400" font-style="" opacity="1" y="73.87500095367432" transform="rotate(0)"><tspan id="SvgjsTspan1149" dy="16" x="93"><tspan id="SvgjsTspan1150" style="text-decoration:;">global confs</tspan></tspan></text></g></g><g id="SvgjsG1151" transform="translate(360.41025870186945,533.2647386278425)"><path id="SvgjsPath1152" d="M 0 0L 96 0L 96 54L 0 54Z" stroke="rgba(0,0,0,1)" stroke-width="1.5" fill-opacity="1" fill="#b0e38f"></path><g id="SvgjsG1153"><text id="SvgjsText1154" font-family="微软雅黑" text-anchor="middle" font-size="13px" width="76px" fill="#323232" font-weight="400" align="middle" lineHeight="125%" anchor="middle" family="微软雅黑" size="13px" weight="400" font-style="" opacity="1" y="16.375" transform="rotate(0)"><tspan id="SvgjsTspan1155" dy="16" x="48"><tspan id="SvgjsTspan1156" style="text-decoration:;">~/.bashrc</tspan></tspan></text></g></g><g id="SvgjsG1157" transform="translate(25.000750829303172,435.4814081343393)"><path id="SvgjsPath1158" d="M 120 0Q 111 0 111 9L 111 61Q 111 70 98 70Q 111 70 111 79L 111 131Q 111 140 120 140" stroke="rgba(33,41,48,1)" stroke-width="1.5" fill="none"></path><path id="SvgjsPath1159" d="M 0 0L 120 0L 120 140L 0 140Z" stroke="none" fill="none"></path><g id="SvgjsG1160"><text id="SvgjsText1161" font-family="微软雅黑" text-anchor="end" font-size="13px" width="93px" fill="#323232" font-weight="400" align="middle" lineHeight="125%" anchor="end" family="微软雅黑" size="13px" weight="400" font-style="" opacity="1" y="59.375" transform="rotate(0)"><tspan id="SvgjsTspan1162" dy="16" x="93"><tspan id="SvgjsTspan1163" style="text-decoration:;">personal confs</tspan></tspan></text></g></g><g id="SvgjsG1164"><path id="SvgjsPath1165" d="M408.41025870186945 338.62187957763666L408.41025870186945 435.5683091027396L408.41025870186945 435.5683091027396L408.41025870186945 530.5647386278424" stroke="#5b79e8" stroke-width="1.5" fill="none" marker-end="url(#SvgjsMarker1166)"></path></g><g id="SvgjsG1168"><path id="SvgjsPath1169" d="M253.26740155901234 214.62187957763672L253.26740155901234 311.01473672049383L339.55489662374777 311.01473672049383" stroke="#ec7270" stroke-width="1.5" fill="none" marker-end="url(#SvgjsMarker1170)"></path></g><g id="SvgjsG1172"><path id="SvgjsPath1173" d="M252.26114909138005 512.5513341755398L252.26114909138005 560.2647386278425L357.71025870186946 560.2647386278425" stroke="#ec7270" stroke-width="1.5" fill="none" marker-end="url(#SvgjsMarker1174)"></path></g><g id="SvgjsG1176"><path id="SvgjsPath1177" d="M408.41025870186945 79.62187957763672L408.41025870186945 181.44330814906527L408.41025870186945 181.44330814906527L408.41025870186945 281.31473672049384" stroke="#5b79e8" stroke-width="1.5" fill="none" marker-end="url(#SvgjsMarker1178)"></path></g><g id="SvgjsG1180"><path id="SvgjsPath1181" d="M408.41025870186945 337.76473672049383L408.41025870186945 375.21830776759555L252.26114909138005 375.21830776759555L252.26114909138005 410.7218788146973" stroke="#ec7270" stroke-width="1.5" fill="none" marker-end="url(#SvgjsMarker1182)"></path></g></svg>