<svg id="SvgjsSvg1124" width="719" height="525.5" xmlns="http://www.w3.org/2000/svg" version="1.1" xmlns:xlink="http://www.w3.org/1999/xlink" xmlns:svgjs="http://svgjs.com/svgjs"><defs id="SvgjsDefs1125"><marker id="SvgjsMarker1152" markerWidth="14" markerHeight="10" refX="10" refY="5" viewBox="0 0 14 10" orient="auto" markerUnits="userSpaceOnUse" stroke-dasharray="0,0"><path id="SvgjsPath1153" d="M0,0 L14,5 L0,10 L0,0" fill="#323232" stroke="#323232" stroke-width="1"></path></marker><marker id="SvgjsMarker1164" markerWidth="14" markerHeight="10" refX="10" refY="5" viewBox="0 0 14 10" orient="auto" markerUnits="userSpaceOnUse" stroke-dasharray="0,0"><path id="SvgjsPath1165" d="M0,0 L14,5 L0,10 L0,0" fill="#323232" stroke="#323232" stroke-width="1"></path></marker><marker id="SvgjsMarker1168" markerWidth="14" markerHeight="10" refX="10" refY="5" viewBox="0 0 14 10" orient="auto" markerUnits="userSpaceOnUse" stroke-dasharray="0,0"><path id="SvgjsPath1169" d="M0,0 L14,5 L0,10 L0,0" fill="#323232" stroke="#323232" stroke-width="1"></path></marker><marker id="SvgjsMarker1204" markerWidth="14" markerHeight="10" refX="10" refY="5" viewBox="0 0 14 10" orient="auto" markerUnits="userSpaceOnUse" stroke-dasharray="0,0"><path id="SvgjsPath1205" d="M0,0 L14,5 L0,10 L0,0" fill="#323232" stroke="#323232" stroke-width="1"></path></marker><marker id="SvgjsMarker1208" markerWidth="14" markerHeight="10" refX="10" refY="5" viewBox="0 0 14 10" orient="auto" markerUnits="userSpaceOnUse" stroke-dasharray="0,0"><path id="SvgjsPath1209" d="M0,0 L14,5 L0,10 L0,0" fill="#323232" stroke="#323232" stroke-width="1"></path></marker><marker id="SvgjsMarker1228" markerWidth="14" markerHeight="10" refX="10" refY="5" viewBox="0 0 14 10" orient="auto" markerUnits="userSpaceOnUse" stroke-dasharray="0,0"><path id="SvgjsPath1229" d="M0,0 L14,5 L0,10 L0,0" fill="#323232" stroke="#323232" stroke-width="1"></path></marker><marker id="SvgjsMarker1236" markerWidth="14" markerHeight="10" refX="10" refY="5" viewBox="0 0 14 10" orient="auto" markerUnits="userSpaceOnUse" stroke-dasharray="0,0"><path id="SvgjsPath1237" d="M0,0 L14,5 L0,10 L0,0" fill="#323232" stroke="#323232" stroke-width="1"></path></marker></defs><g id="SvgjsG1126" transform="translate(158,65)"><path id="SvgjsPath1127" d="M 0 35.25C 0 -11.75 95 -11.75 95 35.25C 95 82.25 0 82.25 0 35.25Z" stroke="rgba(33,41,48,1)" stroke-width="2" fill-opacity="1" fill="#7bd144"></path><g id="SvgjsG1128"><text id="SvgjsText1129" font-family="微软雅黑" text-anchor="middle" font-size="13px" width="75px" fill="#323232" font-weight="400" align="middle" lineHeight="125%" anchor="middle" family="微软雅黑" size="13px" weight="400" font-style="" opacity="1" y="24.625" transform="rotate(0)"><tspan id="SvgjsTspan1130" dy="16" x="47.5"><tspan id="SvgjsTspan1131" style="text-decoration:;">container1</tspan></tspan></text></g></g><g id="SvgjsG1132" transform="translate(158,184.5)"><path id="SvgjsPath1133" d="M 0 35.25C 0 -11.75 95 -11.75 95 35.25C 95 82.25 0 82.25 0 35.25Z" stroke="rgba(33,41,48,1)" stroke-width="2" fill-opacity="1" fill="#7bd144"></path><g id="SvgjsG1134"><text id="SvgjsText1135" font-family="微软雅黑" text-anchor="middle" font-size="13px" width="75px" fill="#323232" font-weight="400" align="middle" lineHeight="125%" anchor="middle" family="微软雅黑" size="13px" weight="400" font-style="" opacity="1" y="24.625" transform="rotate(0)"><tspan id="SvgjsTspan1136" dy="16" x="47.5"><tspan id="SvgjsTspan1137" style="text-decoration:;">container2</tspan></tspan></text></g></g><g id="SvgjsG1138" transform="translate(155.5,129)"><path id="SvgjsPath1139" d="M 0 0L 100 0L 100 40L 0 40Z" stroke="none" fill="none"></path><g id="SvgjsG1140"><text id="SvgjsText1141" font-family="微软雅黑" text-anchor="middle" font-size="13px" width="100px" fill="#323232" font-weight="400" align="middle" lineHeight="125%" anchor="middle" family="微软雅黑" size="13px" weight="400" font-style="" opacity="1" y="9.375" transform="rotate(0)"><tspan id="SvgjsTspan1142" dy="16" x="50"><tspan id="SvgjsTspan1143" style="text-decoration:;">-p 80:80</tspan></tspan></text></g></g><g id="SvgjsG1144" transform="translate(312,101)"><path id="SvgjsPath1145" d="M 0 0L 104 0L 104 54L 0 54Z" stroke="rgba(33,41,48,1)" stroke-width="2" fill-opacity="1" fill="#ffffff"></path><g id="SvgjsG1146"><text id="SvgjsText1147" font-family="微软雅黑" text-anchor="middle" font-size="13px" width="84px" fill="#323232" font-weight="400" align="middle" lineHeight="125%" anchor="middle" family="微软雅黑" size="13px" weight="400" font-style="" opacity="1" y="16.375" transform="rotate(0)"><tspan id="SvgjsTspan1148" dy="16" x="52"><tspan id="SvgjsTspan1149" style="text-decoration:;">bridge/docker0</tspan></tspan></text></g></g><g id="SvgjsG1150"><path id="SvgjsPath1151" d="M364 100L364 83L364 83L364 68.6" stroke="#323232" stroke-width="2" fill="none" marker-end="url(#SvgjsMarker1152)"></path></g><g id="SvgjsG1154" transform="translate(314,25)"><path id="SvgjsPath1155" d="M 0 0L 100 0L 100 40L 0 40Z" stroke="none" fill="none"></path><g id="SvgjsG1156"><text id="SvgjsText1157" font-family="微软雅黑" text-anchor="middle" font-size="13px" width="100px" fill="#323232" font-weight="400" align="middle" lineHeight="125%" anchor="middle" family="微软雅黑" size="13px" weight="400" font-style="" opacity="1" y="0.875" transform="rotate(0)"><tspan id="SvgjsTspan1158" dy="16" x="50"><tspan id="SvgjsTspan1159" style="text-decoration:;">default virtual </tspan></tspan><tspan id="SvgjsTspan1160" dy="16" x="50"><tspan id="SvgjsTspan1161" style="text-decoration:;">network</tspan></tspan></text></g></g><g id="SvgjsG1162"><path id="SvgjsPath1163" d="M254 100.25L282.5 100.25L282.5 128L308.4 128" stroke="#323232" stroke-width="2" fill="none" marker-end="url(#SvgjsMarker1164)"></path></g><g id="SvgjsG1166"><path id="SvgjsPath1167" d="M254 219.75L282.8807403920117 219.75L282.8807403920117 145.18826668428235L309.16148078402347 145.18826668428235" stroke="#323232" stroke-width="2" fill="none" marker-end="url(#SvgjsMarker1168)"></path></g><g id="SvgjsG1170" transform="translate(25,129)"><path id="SvgjsPath1171" d="M 0 0L 116 0L 116 77.5L 0 77.5Z" stroke="none" fill="none"></path><g id="SvgjsG1172"><text id="SvgjsText1173" font-family="微软雅黑" text-anchor="middle" font-size="13px" width="116px" fill="#323232" font-weight="400" align="middle" lineHeight="125%" anchor="middle" family="微软雅黑" size="13px" weight="400" font-style="" opacity="1" y="3.625" transform="rotate(0)"><tspan id="SvgjsTspan1174" dy="16" x="58"><tspan id="SvgjsTspan1175" style="text-decoration:;">inside a same network </tspan></tspan><tspan id="SvgjsTspan1176" dy="16" x="58"><tspan id="SvgjsTspan1177" style="text-decoration:;">they can talk to each </tspan></tspan><tspan id="SvgjsTspan1178" dy="16" x="58"><tspan id="SvgjsTspan1179" style="text-decoration:;">other wihtout export </tspan></tspan><tspan id="SvgjsTspan1180" dy="16" x="58"><tspan id="SvgjsTspan1181" style="text-decoration:;">ports</tspan></tspan></text></g></g><g id="SvgjsG1182" transform="translate(320,355)"><path id="SvgjsPath1183" d="M 0 0L 96 0L 96 54L 0 54Z" stroke="rgba(33,41,48,1)" stroke-width="2" fill-opacity="1" fill="#ffffff"></path><g id="SvgjsG1184"><text id="SvgjsText1185" font-family="微软雅黑" text-anchor="middle" font-size="13px" width="76px" fill="#323232" font-weight="400" align="middle" lineHeight="125%" anchor="middle" family="微软雅黑" size="13px" weight="400" font-style="" opacity="1" y="7.875" transform="rotate(0)"><tspan id="SvgjsTspan1186" dy="16" x="48"><tspan id="SvgjsTspan1187" style="text-decoration:;">virtual </tspan></tspan><tspan id="SvgjsTspan1188" dy="16" x="48"><tspan id="SvgjsTspan1189" style="text-decoration:;">network2</tspan></tspan></text></g></g><g id="SvgjsG1190" transform="translate(155.5,318.5)"><path id="SvgjsPath1191" d="M 0 35.25C 0 -11.75 95 -11.75 95 35.25C 95 82.25 0 82.25 0 35.25Z" stroke="rgba(33,41,48,1)" stroke-width="2" fill-opacity="1" fill="#ed9745"></path><g id="SvgjsG1192"><text id="SvgjsText1193" font-family="微软雅黑" text-anchor="middle" font-size="13px" width="75px" fill="#323232" font-weight="400" align="middle" lineHeight="125%" anchor="middle" family="微软雅黑" size="13px" weight="400" font-style="" opacity="1" y="24.625" transform="rotate(0)"><tspan id="SvgjsTspan1194" dy="16" x="47.5"><tspan id="SvgjsTspan1195" style="text-decoration:;">container3</tspan></tspan></text></g></g><g id="SvgjsG1196" transform="translate(158,429.5)"><path id="SvgjsPath1197" d="M 0 35.25C 0 -11.75 95 -11.75 95 35.25C 95 82.25 0 82.25 0 35.25Z" stroke="rgba(33,41,48,1)" stroke-width="2" fill-opacity="1" fill="#ed9745"></path><g id="SvgjsG1198"><text id="SvgjsText1199" font-family="微软雅黑" text-anchor="middle" font-size="13px" width="75px" fill="#323232" font-weight="400" align="middle" lineHeight="125%" anchor="middle" family="微软雅黑" size="13px" weight="400" font-style="" opacity="1" y="24.625" transform="rotate(0)"><tspan id="SvgjsTspan1200" dy="16" x="47.5"><tspan id="SvgjsTspan1201" style="text-decoration:;">container4</tspan></tspan></text></g></g><g id="SvgjsG1202"><path id="SvgjsPath1203" d="M251.5 353.75L285.25 353.75L285.25 382L316.4 382" stroke="#323232" stroke-width="2" fill="none" marker-end="url(#SvgjsMarker1204)"></path></g><g id="SvgjsG1206"><path id="SvgjsPath1207" d="M254 464.75L286.5 464.75L286.5 393L316.4 393" stroke="#323232" stroke-width="2" fill="none" marker-end="url(#SvgjsMarker1208)"></path></g><g id="SvgjsG1210" transform="translate(137,386)"><path id="SvgjsPath1211" d="M 0 0L 100 0L 100 40L 0 40Z" stroke="none" fill="none"></path><g id="SvgjsG1212"><text id="SvgjsText1213" font-family="微软雅黑" text-anchor="middle" font-size="13px" width="100px" fill="#323232" font-weight="400" align="middle" lineHeight="125%" anchor="middle" family="微软雅黑" size="13px" weight="400" font-style="" opacity="1" y="9.375" transform="rotate(0)"><tspan id="SvgjsTspan1214" dy="16" x="50"><tspan id="SvgjsTspan1215" style="text-decoration:;">-p 8080:80</tspan></tspan></text></g></g><g id="SvgjsG1216" transform="translate(598,230)"><path id="SvgjsPath1217" d="M 0 0L 96 0L 96 54L 0 54Z" stroke="rgba(33,41,48,1)" stroke-width="2" fill-opacity="1" fill="#ffffff"></path><g id="SvgjsG1218"><text id="SvgjsText1219" font-family="微软雅黑" text-anchor="middle" font-size="13px" width="76px" fill="#323232" font-weight="400" align="middle" lineHeight="125%" anchor="middle" family="微软雅黑" size="13px" weight="400" font-style="" opacity="1" y="-0.125" transform="rotate(0)"><tspan id="SvgjsTspan1220" dy="16" x="48"><tspan id="SvgjsTspan1221" style="text-decoration:;">physical </tspan></tspan><tspan id="SvgjsTspan1222" dy="16" x="48"><tspan id="SvgjsTspan1223" style="text-decoration:;">network </tspan></tspan><tspan id="SvgjsTspan1224" dy="16" x="48"><tspan id="SvgjsTspan1225" style="text-decoration:;">interface</tspan></tspan></text></g></g><g id="SvgjsG1226"><path id="SvgjsPath1227" d="M646 285L646 390L419.6 390" stroke="#323232" stroke-width="2" fill="none" marker-end="url(#SvgjsMarker1228)"></path><rect id="SvgjsRect1230" width="129" height="16" x="457.25197132616495" y="382" fill="#ffffff"></rect><text id="SvgjsText1231" font-family="微软雅黑" text-anchor="middle" font-size="13px" width="129px" fill="#323232" font-weight="400" align="top" lineHeight="16px" anchor="middle" family="微软雅黑" size="13px" weight="400" font-style="" opacity="1" y="379.375" transform="rotate(0)"><tspan id="SvgjsTspan1232" dy="16" x="521.751971326165"><tspan id="SvgjsTspan1233" style="text-decoration:;">forward port 8080 traffic</tspan></tspan></text></g><g id="SvgjsG1234"><path id="SvgjsPath1235" d="M646 229L646 128L419.6 128" stroke="#323232" stroke-width="2" fill="none" marker-end="url(#SvgjsMarker1236)"></path><rect id="SvgjsRect1238" width="116" height="16" x="485.41672727272726" y="120" fill="#ffffff"></rect><text id="SvgjsText1239" font-family="微软雅黑" text-anchor="middle" font-size="13px" width="116px" fill="#323232" font-weight="400" align="top" lineHeight="16px" anchor="middle" family="微软雅黑" size="13px" weight="400" font-style="" opacity="1" y="117.375" transform="rotate(0)"><tspan id="SvgjsTspan1240" dy="16" x="543.4167272727273"><tspan id="SvgjsTspan1241" style="text-decoration:;">forward port 80 traffic</tspan></tspan></text></g></svg>